<svg width="56" height="20" viewBox="0 0 56 20" fill="none" xmlns="http://www.w3.org/2000/svg">
<path d="M6.0434 6.89979C7.1504 8.51353 8.20833 9.78028 9.26627 10.9917C20.0105 21.7834 27.4261 9.8793 27.53 9.79006C21.4642 13.1338 14.5556 13.7791 6.0434 6.89979Z" fill="url(#paint0_linear_4438_20980)"/>
<path d="M0.858337 1.74112C4.90591 5.22129 17.5483 18.2571 31.8866 5.8578C34.7534 3.38228 37.2305 1.47429 40.4063 0.170339C31.3972 -1.75476 19.4737 13.5201 0.858337 1.74112Z" fill="url(#paint1_linear_4438_20980)"/>
<path d="M30.9053 18.3542L34.5024 10.0272C34.7538 9.45355 35.2116 9.10639 35.8285 9.10499L35.9632 9.10639C36.582 9.10499 37.0242 9.45093 37.2713 10.0272L40.8752 18.3542C40.9493 18.5185 40.9839 18.6652 40.9839 18.8185C40.9839 19.4421 40.5203 19.9414 39.9113 19.9414C39.3808 19.9414 39.0265 19.6209 38.8229 19.1386L38.1305 17.4744L33.5865 17.4772L32.8656 19.213C32.6729 19.6658 32.2916 19.9414 31.8182 19.9414C31.2267 19.9414 30.7724 19.4561 30.7724 18.8506C30.7727 18.6858 30.8315 18.5187 30.9053 18.3542ZM37.2883 15.4185L35.8598 11.9314L34.4295 15.4175L37.2883 15.4185Z" fill="#614E47"/>
<path d="M47.8114 18.7299C47.5596 18.5495 47.3843 18.2177 47.3843 17.8554C47.3843 17.2534 47.8532 16.7816 48.4445 16.7778C48.7372 16.7816 48.9453 16.886 49.0935 16.9938C49.875 17.5798 50.7271 17.945 51.7333 17.945C52.6593 17.945 53.2186 17.5702 53.2186 16.9447V16.914C53.2186 16.3251 52.8691 16.027 51.1408 15.5714C49.0632 15.0273 47.7193 14.4411 47.7193 12.3366V12.3081C47.7193 10.392 49.2227 9.11909 51.3321 9.11909C52.5856 9.11909 53.6708 9.45053 54.6077 10.0549C54.8568 10.2056 55.1047 10.5283 55.1047 10.9785C55.1047 11.5824 54.6333 12.0481 54.0437 12.0504C53.8249 12.0504 53.6505 11.9902 53.4723 11.8847C52.7183 11.4308 52.007 11.1738 51.3004 11.1738C50.4329 11.1738 49.9787 11.5798 49.9787 12.0972V12.1239C49.9787 12.825 50.4191 13.0484 52.2028 13.5168C54.2958 14.0722 55.475 14.8476 55.475 16.6903V16.721C55.475 18.8185 53.9105 20 51.6891 20C50.3324 20.0002 48.9619 19.5798 47.8114 18.7299Z" fill="#614E47"/>
<path d="M43.0172 10.3438C43.0202 9.69309 43.5236 9.17828 44.1567 9.17828C44.7867 9.17828 45.2933 9.69309 45.2933 10.3438V18.7732C45.2933 19.4279 44.7867 19.9413 44.1567 19.9401C43.5235 19.9415 43.0201 19.4253 43.0201 18.7732L43.0172 10.3438Z" fill="#614E47"/>
<defs>
<linearGradient id="paint0_linear_4438_20980" x1="41.9387" y1="18.9689" x2="17.0429" y2="-12.7163" gradientUnits="userSpaceOnUse">
<stop offset="0.15" stop-color="#CBDB2F"/>
<stop offset="0.3453" stop-color="#BAD030"/>
<stop offset="0.6723" stop-color="#97B933"/>
<stop offset="0.96" stop-color="#74A333"/>
</linearGradient>
<linearGradient id="paint1_linear_4438_20980" x1="35.71" y1="-15.7535" x2="7.59874" y2="20.6492" gradientUnits="userSpaceOnUse">
<stop offset="0.2" stop-color="#74A333"/>
<stop offset="0.4102" stop-color="#9ABB33"/>
<stop offset="0.6206" stop-color="#BBD130"/>
<stop offset="0.75" stop-color="#CBDB2F"/>
</linearGradient>
</defs>
</svg>
